<?xml version="1.0" encoding="utf-8"?>
<!-- Generator: Adobe Illustrator 22.0.0, SVG Export Plug-In . SVG Version: 6.00 Build 0)  -->
<svg version="1.1" id="图层_1" xmlns="http://www.w3.org/2000/svg" xmlns:xlink="http://www.w3.org/1999/xlink" x="0px" y="0px"
	 viewBox="0 0 1080 1080" style="enable-background:new 0 0 1080 1080;" xml:space="preserve">
<style type="text/css">
	.st0{fill:#BDBDBD;}
</style>
<path class="st0" d="M776.2,576.7L413.7,935c-19.9,19.6-51.9,19.6-71.8,0c-9.5-9.4-14.8-22.1-14.8-35.4c0-13.3,5.3-26.1,14.8-35.4
	l329.2-325.4L340.9,215.7c-9.5-9.3-14.9-22-14.9-35.3c0-13.3,5.4-26,14.9-35.3c20-19.6,52-19.6,72,0l366.3,358.3
	c10,9.8,15.4,23.3,14.8,37.3C793.4,554.7,786.9,567.7,776.2,576.7L776.2,576.7z M776.2,576.7"/>
</svg>
